<svg id="Layer_1" data-name="Layer 1" xmlns="http://www.w3.org/2000/svg" viewBox="0 0 36.96 47.28"><defs><style>.cls-1{fill:#3c2415;}.cls-1,.cls-2{stroke:#ffd040;}.cls-1,.cls-2,.cls-3{stroke-miterlimit:10;}.cls-2,.cls-3,.cls-4{fill:#fff;}.cls-3{stroke:#3c2415;}.cls-4{font-size:9.19px;font-family:Abolition-Regular, Abolition;}.cls-5{letter-spacing:-0.01em;}</style></defs><rect class="cls-1" x="0.5" y="0.5" width="35.96" height="35.33" rx="1.24"/><rect class="cls-1" x="0.5" y="37.84" width="35.96" height="8.87" rx="1.24"/><polygon class="cls-2" points="18.48 3.6 22.62 14.66 33.68 14.65 24.19 21.81 27.88 32.52 18.48 25.63 9.08 32.52 12.56 21.72 3.28 14.65 14.95 14.4 18.48 3.6"/><polygon class="cls-3" points="18.48 6.29 21.9 15.55 31.04 15.54 23.2 21.53 26.24 30.5 18.48 24.73 10.72 30.5 13.59 21.46 5.92 15.54 15.56 15.33 18.48 6.29"/><text x="-6.52" y="-1.69"/><text class="cls-4" transform="translate(1.93 45.75) scale(1.43 1)">U.S.ARM<tspan class="cls-5" x="19.8" y="0">Y</tspan></text></svg>