<svg id="Layer_1" data-name="Layer 1" xmlns="http://www.w3.org/2000/svg" viewBox="0 0 135.36 135.39"><defs><style>.cls-1{fill:#5e5d5d;}</style></defs><path class="cls-1" d="M63.48,0h8.46c.34.07.68.17,1,.22,3.48.54,7,.86,10.42,1.64a67.62,67.62,0,0,1,51,54.18c.41,2.47.68,5,1,7.44v8.46c-.07.39-.17.77-.23,1.16-.53,3.43-.86,6.91-1.63,10.29a67.62,67.62,0,0,1-54.18,51c-2.47.41-5,.69-7.44,1h-8.4c-.29-.07-.58-.16-.88-.21-3.09-.45-6.21-.75-9.27-1.36-26.25-5.25-48-27.82-52.27-54.2C.64,77.09.35,74.51,0,71.94V63.48c.08-.38.17-.77.23-1.15.45-3,.74-6.13,1.36-9.14C7.05,26.76,29.35,5.41,55.91,1,58.42.63,61,.35,63.48,0ZM58.13,8.38V83.45c0,3.1-1.54,4.63-4.62,4.64H42a1.85,1.85,0,0,0-2,1.22,11.4,11.4,0,1,1-5.63-15.69,11.51,11.51,0,0,1,5.77,5.47c.21.41.63,1,1,1,3,.07,6,0,9,0V10.49c-2.2.85-4.23,1.69-6.29,2.43a1.63,1.63,0,0,0-1.26,1.84c.06,4.76,0,9.52,0,14.28a3.92,3.92,0,0,1-3.84,4h0a4,4,0,0,1-4-3.8c-.05-.61,0-1.23,0-1.85V17.88c-1.5,1.11-2.81,2-4,3a2.49,2.49,0,0,0-.78,1.62c-.07,2.82,0,5.65,0,8.47,0,5.47-1.05,7.4-4,7.37S22,36.4,22,31V29.32A59.83,59.83,0,0,0,10.5,50.43H21.44a1.86,1.86,0,0,0,2-1.21,11.42,11.42,0,1,1-.06,10.21,1.57,1.57,0,0,0-1.66-1.09q-6,.07-11.9,0c-.89,0-1.23.27-1.34,1.15a59.84,59.84,0,0,0,51.14,67.44,59.07,59.07,0,0,0,10.38.52c2.13-.07,4.26-.36,6.43-.55V53.15c0-3.12,1.49-4.62,4.62-4.63H93.48A2.48,2.48,0,0,0,96,47.19a11.26,11.26,0,0,1,12.89-4.81,11.44,11.44,0,0,1,0,21.89c-5,1.49-10.55-.33-12.89-4.9-1.37-2.71-3-3.19-5.59-3-1.61.16-3.26,0-4.89,0a5.76,5.76,0,0,0-1.16.08v68.69c2.47-.93,4.79-1.86,7.14-2.69a1.7,1.7,0,0,0,1.29-1.93c-.06-5.65,0-11.29,0-16.93a4,4,0,0,1,7.91-1.21,4.2,4.2,0,0,1,0,1.12v12.3a14.28,14.28,0,0,0,.07,1.61c1.44-1.06,2.65-2,3.91-2.87a1.85,1.85,0,0,0,.83-1.77V98.22A4,4,0,0,1,113.43,97a3.89,3.89,0,0,1,0,1.13v6.61c0,.3.07.61.11,1,4.67-5.15,10.7-16.44,11.16-20.9H113.89A1.77,1.77,0,0,0,112,86.12a11.41,11.41,0,1,1,.06-10.06,1.5,1.5,0,0,0,1.57,1h11.91c1,0,1.29-.29,1.4-1.23a60.4,60.4,0,0,0,0-15.55c-2.48-18-11.28-32.11-26.24-42.34A57.05,57.05,0,0,0,70.7,8C66.64,7.85,62.45,8.25,58.13,8.38Zm47.42,41.45A3.5,3.5,0,1,0,109,53.38v-.13A3.5,3.5,0,0,0,105.55,49.83Zm-75.42,4.6a3.47,3.47,0,1,0,3.49-3.54,3.51,3.51,0,0,0-3.49,3.53ZM105.29,81a3.47,3.47,0,0,0-6.93-.37,2.29,2.29,0,0,0,0,.37,3.47,3.47,0,1,0,6.93.37A2.29,2.29,0,0,0,105.29,81ZM29.9,87.59a3.47,3.47,0,1,0-3.49-3.5,3.42,3.42,0,0,0,3.34,3.5Z"/><path class="cls-1" d="M71.2,70.42V94.61a4.6,4.6,0,0,1-2.78,4.65c-1.89.94-3.7,2-5.59,3a1.81,1.81,0,0,0-1.19,2A11.39,11.39,0,0,1,39,106.4a11.43,11.43,0,0,1,4.64-11.14,11.23,11.23,0,0,1,13.22,0,1.6,1.6,0,0,0,2.09.1c1.38-.85,3.33-1.3,4.07-2.51s.21-3.08.21-4.66V43.76A5.56,5.56,0,0,1,65.46,39c3.74-3,7.37-6.16,11.08-9.2A1.48,1.48,0,0,0,77.13,28a11.32,11.32,0,1,1,6.17,7.56,1.67,1.67,0,0,0-1.46.17q-5.09,4.13-10,8.39a2.29,2.29,0,0,0-.58,1.59C71.19,53.93,71.2,62.18,71.2,70.42ZM88.14,21.7a3.5,3.5,0,1,0,3.54,3.51,3.54,3.54,0,0,0-3.54-3.51ZM53.76,104.56A3.47,3.47,0,1,0,50.27,108h.07a3.42,3.42,0,0,0,3.42-3.42Z"/></svg>