<?xml version="1.0" encoding="utf-8"?>
<!-- Generator: Adobe Illustrator 26.0.3, SVG Export Plug-In . SVG Version: 6.00 Build 0)  -->
<svg version="1.1" id="Layer_1" xmlns="http://www.w3.org/2000/svg" xmlns:xlink="http://www.w3.org/1999/xlink" x="0px" y="0px"
	 viewBox="0 0 595.3 595.3" style="enable-background:new 0 0 595.3 595.3;" xml:space="preserve">
<style type="text/css">
	.st0{fill:url(#SVGID_1_);}
	.st1{fill:url(#SVGID_00000084523856699030182810000008901650520555480754_);}
	.st2{fill:#FFFFFF;}
	.st3{fill:url(#SVGID_00000029030487525711005640000016217306544400032141_);}
	.st4{fill:url(#SVGID_00000111179572569762405570000010445604847983723147_);}
	.st5{fill:url(#SVGID_00000180365193572853821690000001496300252190731665_);}
	.st6{fill:#173158;}
</style>
<g>
	<g>
		<linearGradient id="SVGID_1_" gradientUnits="userSpaceOnUse" x1="297.7858" y1="592.5618" x2="297.7858" y2="2.3676">
			<stop  offset="0" style="stop-color:#010101"/>
			<stop  offset="0.2364" style="stop-color:#FFFFFF"/>
			<stop  offset="0.3818" style="stop-color:#4E4B4B"/>
			<stop  offset="0.4667" style="stop-color:#010101"/>
			<stop  offset="0.7576" style="stop-color:#FFFFFF"/>
			<stop  offset="0.9107" style="stop-color:#4E4B4B"/>
			<stop  offset="1" style="stop-color:#010101"/>
		</linearGradient>
		<path class="st0" d="M297.8,592.6c-67.6,0-133.8-23.6-186.2-66.3c-51.7-42.2-87.9-101-102.1-165.7c-4.5-20.7-6.8-41.9-6.8-63.1
			C2.7,134.7,135.1,2.4,297.8,2.4c162.7,0,295.1,132.4,295.1,295.1c0,32-5.1,63.4-15.2,93.5c-19.5,58.2-56.1,108.2-105.9,144.7
			C421,572.9,360.8,592.6,297.8,592.6L297.8,592.6z"/>
		
			<linearGradient id="SVGID_00000042698210411204906520000015613305663443861638_" gradientUnits="userSpaceOnUse" x1="405.0672" y1="33.4683" x2="238.7742" y2="445.0581">
			<stop  offset="0" style="stop-color:#010101"/>
			<stop  offset="1.562445e-02" style="stop-color:#222121"/>
			<stop  offset="3.955260e-02" style="stop-color:#434140"/>
			<stop  offset="6.643695e-02" style="stop-color:#636160"/>
			<stop  offset="9.572444e-02" style="stop-color:#858281"/>
			<stop  offset="0.1281" style="stop-color:#A5A2A1"/>
			<stop  offset="0.1646" style="stop-color:#C1BEBE"/>
			<stop  offset="0.2073" style="stop-color:#D9D7D7"/>
			<stop  offset="0.26" style="stop-color:#EBEAE9"/>
			<stop  offset="0.334" style="stop-color:#F9F9F9"/>
			<stop  offset="0.5394" style="stop-color:#FFFFFF"/>
			<stop  offset="0.7148" style="stop-color:#F9F9F9"/>
			<stop  offset="0.7779" style="stop-color:#EBEAE9"/>
			<stop  offset="0.823" style="stop-color:#D9D7D7"/>
			<stop  offset="0.8594" style="stop-color:#C1BEBE"/>
			<stop  offset="0.8906" style="stop-color:#A5A2A1"/>
			<stop  offset="0.9183" style="stop-color:#858281"/>
			<stop  offset="0.9433" style="stop-color:#636160"/>
			<stop  offset="0.9662" style="stop-color:#434140"/>
			<stop  offset="0.9867" style="stop-color:#222121"/>
			<stop  offset="1" style="stop-color:#010101"/>
		</linearGradient>
		<path style="fill:url(#SVGID_00000042698210411204906520000015613305663443861638_);" d="M299,65.1
			c127.9,0,231.6,103.7,231.6,231.6c0,3.1-0.1,6.2-0.2,9.2c18.4,24.3,31.4,51.5,37.8,80.7c9.5-28.3,14.6-58.5,14.6-90
			c0-156.5-127.3-283.8-283.8-283.8S15.2,140.2,15.2,296.7c0,20.8,2.3,41.1,6.5,60.7c10.2-26.1,25.9-50.3,46-71.5
			C73.3,163,174.7,65.1,299,65.1z"/>
		<path class="st2" d="M299,545.2c-137,0-248.5-111.5-248.5-248.5C50.5,159.7,162,48.2,299,48.2c137,0,248.5,111.5,248.5,248.5
			C547.5,433.7,436,545.2,299,545.2L299,545.2z"/>
		
			<linearGradient id="SVGID_00000088823446158687854370000017056126572348231097_" gradientUnits="userSpaceOnUse" x1="299.126" y1="305.9364" x2="299.126" y2="65.1496">
			<stop  offset="0" style="stop-color:#5E7BBD"/>
			<stop  offset="1" style="stop-color:#36499E"/>
		</linearGradient>
		<path style="fill:url(#SVGID_00000088823446158687854370000017056126572348231097_);" d="M299,65.1
			C174.7,65.1,73.3,163,67.7,285.9c51.6-54.4,132.2-89.5,222.8-89.5c101.3,0,190.1,43.8,239.8,109.5c0.1-3.1,0.2-6.1,0.2-9.2
			C530.6,168.8,426.9,65.1,299,65.1z"/>
		
			<linearGradient id="SVGID_00000019636556480169908930000013458010461084853181_" gradientUnits="userSpaceOnUse" x1="298.8971" y1="528.2685" x2="298.8971" y2="196.4539">
			<stop  offset="0" style="stop-color:#3F56A6"/>
			<stop  offset="1" style="stop-color:#293693"/>
		</linearGradient>
		<path style="fill:url(#SVGID_00000019636556480169908930000013458010461084853181_);" d="M290.5,196.5
			c-90.6,0-171.2,35-222.8,89.5c-0.2,3.6-0.3,7.2-0.3,10.8c0,127.9,103.7,231.6,231.6,231.6c124.8,0,226.5-98.7,231.4-222.3
			C480.6,240.2,391.8,196.5,290.5,196.5z"/>
		<g>
			
				<linearGradient id="SVGID_00000084516874642736453170000009779255467191029951_" gradientUnits="userSpaceOnUse" x1="289.3795" y1="273.5318" x2="203.5236" y2="71.2681">
				<stop  offset="0" style="stop-color:#FFFFFF"/>
				<stop  offset="3.607005e-02" style="stop-color:#FFFFFF;stop-opacity:0.9639"/>
				<stop  offset="1" style="stop-color:#FFFFFF;stop-opacity:0"/>
			</linearGradient>
			<path style="fill:url(#SVGID_00000084516874642736453170000009779255467191029951_);" d="M505.6,160.1
				c-46.2-64.5-120-108.5-205.1-108.5C163.5,51.6,52.1,163,52.1,299.9c0,17.8,1.9,35.7,5.7,53.1
				C187.7,146.5,556.1,230.7,505.6,160.1z"/>
			<g>
				<path class="st6" d="M259.8,313.7c4.3,0,7.9-3.5,7.9-7.9c0-4.3-3.5-7.9-7.9-7.9c-3,0-5.5,1.7-6.9,4.1h-38.6l-17.5,18.6h-29.6
					v95.8h-36.4V189H167v95.2h64.3c1.3,2.5,3.9,4.3,7,4.3c4.3,0,7.9-3.5,7.9-7.9c0-4.3-3.5-7.9-7.9-7.9c-3.1,0-5.8,1.9-7.1,4.5H174
					v-95.2h-50.1v241.3h50.3v-95.8h25.7l17.5-18.6h35.3C253.8,311.7,256.6,313.7,259.8,313.7z M241.3,280.7c0,1.7-1.3,3-3,3
					c-1.7,0-3-1.3-3-3c0-1.7,1.3-3,3-3C240,277.6,241.3,279,241.3,280.7z M259.8,302.8c1.7,0,3,1.4,3,3c0,1.7-1.3,3-3,3
					c-1.7,0-3-1.3-3-3C256.8,304.1,258.2,302.8,259.8,302.8z"/>
				<path class="st6" d="M184.4,310.3c4.3,0,7.9-3.5,7.9-7.9c0-4.3-3.5-7.9-7.9-7.9c-3.1,0-5.7,1.8-7,4.4h-24.7v-85
					c2.5-1.3,4.2-3.9,4.2-6.9c0-4.3-3.5-7.9-7.9-7.9c-4.3,0-7.9,3.5-7.9,7.9c0,3.1,1.9,5.8,4.5,7.1V306h31.7
					C178.7,308.6,181.3,310.3,184.4,310.3z M149,204.1c1.7,0,3,1.4,3,3c0,1.7-1.3,3-3,3c-1.7,0-3-1.3-3-3
					C146,205.5,147.4,204.1,149,204.1z M187.4,302.5c0,1.7-1.3,3-3,3s-3-1.3-3-3c0-1.7,1.3-3,3-3S187.4,300.8,187.4,302.5z"/>
				<path class="st6" d="M156.3,325.5c0-4.3-3.5-7.9-7.9-7.9c-4.3,0-7.9,3.5-7.9,7.9c0,3,1.8,5.7,4.3,7V392c-2.5,1.3-4.3,3.9-4.3,7
					c0,4.3,3.5,7.9,7.9,7.9c4.3,0,7.9-3.5,7.9-7.9c0-3.1-1.8-5.8-4.5-7.1v-59.4C154.4,331.3,156.3,328.6,156.3,325.5z M148.4,322.5
					c1.7,0,3,1.3,3,3s-1.3,3-3,3c-1.7,0-3-1.3-3-3S146.8,322.5,148.4,322.5z M148.4,402c-1.7,0-3-1.3-3-3c0-1.7,1.3-3,3-3
					c1.7,0,3,1.3,3,3C151.4,400.6,150.1,402,148.4,402z"/>
				<path class="st6" d="M295.2,405.3h79.4c1.3,2.6,3.9,4.5,7.1,4.5c4.3,0,7.9-3.5,7.9-7.9c0-4.3-3.5-7.9-7.9-7.9
					c-3.1,0-5.7,1.8-7,4.3h-72.5V271.8l-18.2-18.2v-64.1h14.2c1.3,2.6,3.9,4.4,7,4.4c4.3,0,7.9-3.5,7.9-7.9c0-4.3-3.5-7.9-7.9-7.9
					c-3.1,0-5.8,1.8-7,4.4h-21.1v74l18.2,18.2V405.3z M381.6,398.9c1.7,0,3,1.3,3,3c0,1.7-1.3,3-3,3c-1.7,0-3-1.3-3-3
					C378.6,400.3,379.9,398.9,381.6,398.9z M308.1,185.9c0,1.7-1.3,3-3,3c-1.7,0-3-1.4-3-3c0-1.7,1.3-3,3-3
					C306.7,182.9,308.1,184.3,308.1,185.9z"/>
				<path class="st6" d="M336.2,321.7c1.3,2.5,3.9,4.2,6.9,4.2c4.3,0,7.9-3.5,7.9-7.9c0-4.3-3.5-7.9-7.9-7.9c-3.2,0-5.9,1.9-7.1,4.6
					h-22.4v64h82.8l17.9,23.2H440c1.4,2.4,3.9,4,6.8,4c4.3,0,7.9-3.5,7.9-7.9c0-4.3-3.5-7.9-7.9-7.9c-3.2,0-6,2-7.2,4.8h-21.8
					l-17.9-23.2h-79.2v-50.1H336.2z M346.2,318c0,1.7-1.3,3-3,3c-1.7,0-3-1.4-3-3c0-1.7,1.3-3,3-3C344.8,315,346.2,316.4,346.2,318z
					 M449.8,398c0,1.7-1.3,3-3,3c-1.7,0-3-1.3-3-3c0-1.7,1.3-3,3-3C448.4,395,449.8,396.4,449.8,398z"/>
				<path class="st6" d="M337.2,182.5l-19.6,18.8h-21.1v33.7c-2.3,1.4-3.9,3.9-3.9,6.7c0,4.3,3.5,7.9,7.9,7.9c4.3,0,7.9-3.5,7.9-7.9
					c0-3.3-2-6.1-4.9-7.3v-26.2h17l19.6-18.8h132.5v36.8H321.2v57.8h123.8v37.4h-67l-18.8-24.3h-22.9c-1.3-2.7-3.9-4.5-7.1-4.5
					c-4.3,0-7.9,3.5-7.9,7.9s3.5,7.9,7.9,7.9c3,0,5.7-1.8,7-4.3h19.6l18.8,24.3h77.3v-51.3H328.1v-44h151.4v-50.7H337.2z
					 M300.5,244.7c-1.7,0-3-1.3-3-3s1.3-3,3-3c1.7,0,3,1.3,3,3S302.2,244.7,300.5,244.7z M329.1,303.6c-1.7,0-3-1.3-3-3s1.3-3,3-3
					c1.7,0,3,1.3,3,3S330.8,303.6,329.1,303.6z"/>
				<path class="st6" d="M432.2,367.1c-4.3,0-7.9,3.5-7.9,7.9c0,4.3,3.5,7.9,7.9,7.9c3,0,5.6-1.7,6.9-4.2h32.8v38.5H283.1V294.9
					c2.6-1.3,4.3-3.9,4.3-7c0-4.3-3.5-7.9-7.9-7.9c-4.3,0-7.9,3.5-7.9,7.9c0,3.1,1.8,5.8,4.5,7.1v26.1h-39.2c-1.2-2.7-4-4.7-7.2-4.7
					c-4.3,0-7.9,3.5-7.9,7.9c0,4.3,3.5,7.9,7.9,7.9c3,0,5.5-1.7,6.9-4.1h39.5v96.1h202.7v-52.3h-39.5
					C438.1,369,435.4,367.1,432.2,367.1z M229.8,327.3c-1.7,0-3-1.3-3-3s1.3-3,3-3c1.7,0,3,1.4,3,3S231.4,327.3,229.8,327.3z
					 M279.5,284.9c1.7,0,3,1.3,3,3s-1.3,3-3,3c-1.7,0-3-1.4-3-3S277.9,284.9,279.5,284.9z M432.2,378c-1.7,0-3-1.4-3-3
					c0-1.7,1.3-3,3-3c1.7,0,3,1.3,3,3C435.2,376.6,433.8,378,432.2,378z"/>
				<path class="st6" d="M358.2,211.1h88c1.3,2.6,3.9,4.4,7,4.4c4.3,0,7.9-3.5,7.9-7.9c0-4.3-3.5-7.9-7.9-7.9c-3.1,0-5.7,1.8-7,4.4
					h-88c-1.3-2.6-3.9-4.4-7-4.4c-4.3,0-7.9,3.5-7.9,7.9c0,4.3,3.5,7.9,7.9,7.9C354.3,215.5,357,213.7,358.2,211.1z M351.2,204.7
					c1.7,0,3,1.4,3,3s-1.3,3-3,3c-1.7,0-3-1.3-3-3S349.6,204.7,351.2,204.7z M456.2,207.7c0,1.7-1.3,3-3,3c-1.7,0-3-1.3-3-3
					s1.3-3,3-3C454.9,204.7,456.2,206,456.2,207.7z"/>
				<path class="st6" d="M393.1,306.5h26.2c1.3,2.5,3.9,4.2,6.9,4.2c4.3,0,7.9-3.5,7.9-7.9s-3.5-7.9-7.9-7.9c-3.2,0-5.9,1.9-7.1,4.6
					h-25.8c-1.2-2.7-4-4.6-7.1-4.6c-4.3,0-7.9,3.5-7.9,7.9s3.5,7.9,7.9,7.9C389.2,310.7,391.8,309,393.1,306.5z M386.2,299.8
					c1.7,0,3,1.3,3,3s-1.3,3-3,3c-1.7,0-3-1.3-3-3S384.5,299.8,386.2,299.8z M429.3,302.8c0,1.7-1.3,3-3,3c-1.7,0-3-1.3-3-3
					s1.3-3,3-3C427.9,299.8,429.3,301.2,429.3,302.8z"/>
			</g>
			<g>
				<path class="st2" d="M255.9,310c4.3,0,7.9-3.5,7.9-7.9c0-4.3-3.5-7.9-7.9-7.9c-3,0-5.5,1.7-6.9,4.1h-38.6L193,317.1h-29.6v95.8
					h-36.4V185.4h36.2v95.2h64.3c1.3,2.5,3.9,4.3,7,4.3c4.3,0,7.9-3.5,7.9-7.9s-3.5-7.9-7.9-7.9c-3.1,0-5.8,1.9-7.1,4.5h-57.3v-95.2
					H120v241.3h50.3V324H196l17.5-18.6h35.3C250,308.1,252.7,310,255.9,310z M237.5,277c0,1.7-1.3,3-3,3c-1.7,0-3-1.3-3-3s1.3-3,3-3
					C236.1,274,237.5,275.4,237.5,277z M255.9,299.2c1.7,0,3,1.4,3,3c0,1.7-1.3,3-3,3c-1.7,0-3-1.3-3-3
					C252.9,300.5,254.3,299.2,255.9,299.2z"/>
				<path class="st2" d="M180.5,306.7c4.3,0,7.9-3.5,7.9-7.9s-3.5-7.9-7.9-7.9c-3.1,0-5.7,1.8-7,4.4h-24.7v-85
					c2.5-1.3,4.2-3.9,4.2-6.9c0-4.3-3.5-7.9-7.9-7.9c-4.3,0-7.9,3.5-7.9,7.9c0,3.1,1.9,5.8,4.5,7.1v91.7h31.7
					C174.8,304.9,177.5,306.7,180.5,306.7z M145.2,200.5c1.7,0,3,1.4,3,3c0,1.7-1.3,3-3,3c-1.7,0-3-1.3-3-3
					C142.2,201.9,143.5,200.5,145.2,200.5z M183.5,298.9c0,1.7-1.3,3-3,3s-3-1.3-3-3s1.3-3,3-3S183.5,297.2,183.5,298.9z"/>
				<path class="st2" d="M152.4,321.9c0-4.3-3.5-7.9-7.9-7.9c-4.3,0-7.9,3.5-7.9,7.9c0,3,1.8,5.7,4.3,7v59.6c-2.5,1.3-4.3,3.9-4.3,7
					c0,4.3,3.5,7.9,7.9,7.9c4.3,0,7.9-3.5,7.9-7.9c0-3.1-1.8-5.8-4.5-7.1v-59.4C150.6,327.7,152.4,325,152.4,321.9z M144.6,318.8
					c1.7,0,3,1.3,3,3s-1.3,3-3,3c-1.7,0-3-1.3-3-3S142.9,318.8,144.6,318.8z M144.6,398.4c-1.7,0-3-1.3-3-3s1.3-3,3-3
					c1.7,0,3,1.3,3,3S146.2,398.4,144.6,398.4z"/>
				<path class="st2" d="M291.3,401.7h79.4c1.3,2.6,3.9,4.5,7.1,4.5c4.3,0,7.9-3.5,7.9-7.9c0-4.3-3.5-7.9-7.9-7.9
					c-3.1,0-5.7,1.8-7,4.3h-72.5V268.2L280,250v-64.1h14.2c1.3,2.6,3.9,4.4,7,4.4c4.3,0,7.9-3.5,7.9-7.9c0-4.3-3.5-7.9-7.9-7.9
					c-3.1,0-5.8,1.8-7,4.4h-21.1v74l18.2,18.2V401.7z M377.7,395.3c1.7,0,3,1.3,3,3s-1.3,3-3,3c-1.7,0-3-1.3-3-3
					S376.1,395.3,377.7,395.3z M304.2,182.3c0,1.7-1.3,3-3,3c-1.7,0-3-1.4-3-3s1.3-3,3-3C302.9,179.3,304.2,180.7,304.2,182.3z"/>
				<path class="st2" d="M332.4,318.1c1.3,2.5,3.9,4.2,6.9,4.2c4.3,0,7.9-3.5,7.9-7.9c0-4.3-3.5-7.9-7.9-7.9c-3.2,0-5.9,1.9-7.1,4.6
					h-22.4v64h82.8l17.9,23.2h25.7c1.4,2.4,3.9,4,6.8,4c4.3,0,7.9-3.5,7.9-7.9c0-4.3-3.5-7.9-7.9-7.9c-3.2,0-6,2-7.2,4.8h-21.8
					L396,368.2h-79.2v-50.1H332.4z M342.3,314.4c0,1.7-1.3,3-3,3c-1.7,0-3-1.4-3-3c0-1.7,1.3-3,3-3
					C341,311.4,342.3,312.8,342.3,314.4z M445.9,394.4c0,1.7-1.3,3-3,3c-1.7,0-3-1.3-3-3s1.3-3,3-3
					C444.6,391.4,445.9,392.8,445.9,394.4z"/>
				<path class="st2" d="M333.3,178.9l-19.6,18.8h-21.1v33.7c-2.3,1.4-3.9,3.9-3.9,6.7c0,4.3,3.5,7.9,7.9,7.9c4.3,0,7.9-3.5,7.9-7.9
					c0-3.3-2-6.1-4.9-7.3v-26.2h17l19.6-18.8h132.5v36.8H317.3v57.8h123.8v37.4h-67l-18.8-24.3h-22.9c-1.3-2.7-3.9-4.5-7.1-4.5
					c-4.3,0-7.9,3.5-7.9,7.9s3.5,7.9,7.9,7.9c3,0,5.7-1.8,7-4.3h19.6l18.8,24.3H448v-51.3H324.2v-44h151.4v-50.7H333.3z
					 M296.7,241.1c-1.7,0-3-1.3-3-3c0-1.7,1.3-3,3-3c1.7,0,3,1.3,3,3C299.7,239.7,298.3,241.1,296.7,241.1z M325.3,300
					c-1.7,0-3-1.3-3-3s1.3-3,3-3c1.7,0,3,1.3,3,3S326.9,300,325.3,300z"/>
				<path class="st2" d="M428.3,363.5c-4.3,0-7.9,3.5-7.9,7.9c0,4.3,3.5,7.9,7.9,7.9c3,0,5.6-1.7,6.9-4.2H468v38.5H279.2V291.3
					c2.6-1.3,4.3-3.9,4.3-7c0-4.3-3.5-7.9-7.9-7.9c-4.3,0-7.9,3.5-7.9,7.9c0,3.1,1.8,5.8,4.5,7.1v26.1h-39.2c-1.2-2.7-4-4.7-7.2-4.7
					c-4.3,0-7.9,3.5-7.9,7.9c0,4.3,3.5,7.9,7.9,7.9c3,0,5.5-1.7,6.9-4.1h39.5v96.1h202.7v-52.3h-39.5
					C434.2,365.4,431.5,363.5,428.3,363.5z M225.9,323.6c-1.7,0-3-1.3-3-3c0-1.7,1.3-3,3-3c1.7,0,3,1.4,3,3
					C228.9,322.3,227.6,323.6,225.9,323.6z M275.7,281.3c1.7,0,3,1.3,3,3s-1.3,3-3,3c-1.7,0-3-1.4-3-3S274,281.3,275.7,281.3z
					 M428.3,374.4c-1.7,0-3-1.4-3-3c0-1.7,1.3-3,3-3c1.7,0,3,1.3,3,3C431.3,373,430,374.4,428.3,374.4z"/>
				<path class="st2" d="M354.4,207.5h88c1.3,2.6,3.9,4.4,7,4.4c4.3,0,7.9-3.5,7.9-7.9c0-4.3-3.5-7.9-7.9-7.9c-3.1,0-5.7,1.8-7,4.4
					h-88c-1.3-2.6-3.9-4.4-7-4.4c-4.3,0-7.9,3.5-7.9,7.9c0,4.3,3.5,7.9,7.9,7.9C350.4,211.9,353.1,210.1,354.4,207.5z M347.4,201
					c1.7,0,3,1.4,3,3c0,1.7-1.3,3-3,3c-1.7,0-3-1.3-3-3C344.4,202.4,345.7,201,347.4,201z M452.4,204c0,1.7-1.3,3-3,3
					c-1.7,0-3-1.3-3-3c0-1.7,1.3-3,3-3C451,201,452.4,202.4,452.4,204z"/>
				<path class="st2" d="M389.3,302.9h26.2c1.3,2.5,3.9,4.2,6.9,4.2c4.3,0,7.9-3.5,7.9-7.9s-3.5-7.9-7.9-7.9c-3.2,0-5.9,1.9-7.1,4.6
					h-25.8c-1.2-2.7-4-4.6-7.1-4.6c-4.3,0-7.9,3.5-7.9,7.9s3.5,7.9,7.9,7.9C385.3,307.1,387.9,305.4,389.3,302.9z M382.3,296.2
					c1.7,0,3,1.3,3,3s-1.3,3-3,3c-1.7,0-3-1.3-3-3S380.7,296.2,382.3,296.2z M425.4,299.2c0,1.7-1.3,3-3,3c-1.7,0-3-1.3-3-3
					s1.3-3,3-3C424,296.2,425.4,297.5,425.4,299.2z"/>
			</g>
		</g>
	</g>
</g>
</svg>
