<?xml version="1.0" encoding="utf-8"?>
<!-- Generator: Adobe Illustrator 26.0.3, SVG Export Plug-In . SVG Version: 6.00 Build 0)  -->
<svg version="1.1" xmlns="http://www.w3.org/2000/svg" xmlns:xlink="http://www.w3.org/1999/xlink" x="0px" y="0px"
	 viewBox="0 0 357 248" style="enable-background:new 0 0 357 248;" xml:space="preserve">
<style type="text/css">
	.st0{display:none;}
	.st1{display:inline;stroke:#FFFFFF;stroke-width:3;stroke-miterlimit:10;}
	.st2{display:inline;fill:none;stroke:#FFFFFF;stroke-width:7;stroke-miterlimit:10;}
	.st3{display:none;fill:none;stroke:#FFFFFF;stroke-width:8;stroke-miterlimit:10;}
	.st4{display:none;fill:url(#SVGID_1_);}
	.st5{display:none;fill:#FFFFFF;}
	.st6{display:none;fill:url(#SVGID_00000121994414703607901030000014794799445998525616_);}
	.st7{display:none;fill:url(#SVGID_00000153663186936521937990000001783622091853084312_);}
	.st8{display:none;fill:url(#SVGID_00000026870449585046226960000009017118414183653519_);}
	.st9{display:inline;fill:#173058;}
	.st10{fill:#FFFFFF;}
</style>
<g id="Layer_2" class="st0">
	<rect x="-234" y="-281.5" class="st1" width="852" height="829"/>
</g>
<g id="Layer_3" class="st0">
	<circle class="st2" cx="180.5" cy="123" r="247.5"/>
</g>
<g id="Layer_1">
	<g>
		<g>
			<path class="st3" d="M179.6,418.6c-67.6,0-133.8-23.6-186.2-66.3c-51.7-42.2-87.9-101-102.1-165.7c-4.5-20.7-6.8-41.9-6.8-63.1
				c0-162.7,132.4-295.1,295.1-295.1c162.7,0,295.1,132.4,295.1,295.1c0,32-5.1,63.4-15.2,93.5c-19.5,58.2-56.1,108.2-105.9,144.7
				C302.8,398.9,242.6,418.6,179.6,418.6L179.6,418.6z"/>
			<linearGradient id="SVGID_1_" gradientUnits="userSpaceOnUse" x1="286.9009" y1="-140.4889" x2="120.6078" y2="271.1008">
				<stop  offset="0" style="stop-color:#000000"/>
				<stop  offset="3.980861e-03" style="stop-color:#090909"/>
				<stop  offset="2.571629e-02" style="stop-color:#373737"/>
				<stop  offset="5.021209e-02" style="stop-color:#626262"/>
				<stop  offset="7.653937e-02" style="stop-color:#888888"/>
				<stop  offset="0.1052" style="stop-color:#A8A8A8"/>
				<stop  offset="0.1369" style="stop-color:#C4C4C4"/>
				<stop  offset="0.1726" style="stop-color:#DADADA"/>
				<stop  offset="0.2144" style="stop-color:#EBEBEB"/>
				<stop  offset="0.266" style="stop-color:#F6F6F6"/>
				<stop  offset="0.3384" style="stop-color:#FDFDFD"/>
				<stop  offset="0.5394" style="stop-color:#FFFFFF"/>
				<stop  offset="0.711" style="stop-color:#FDFDFD"/>
				<stop  offset="0.7729" style="stop-color:#F6F6F6"/>
				<stop  offset="0.8169" style="stop-color:#EBEBEB"/>
				<stop  offset="0.8526" style="stop-color:#DADADA"/>
				<stop  offset="0.8831" style="stop-color:#C4C4C4"/>
				<stop  offset="0.9102" style="stop-color:#A8A8A8"/>
				<stop  offset="0.9346" style="stop-color:#888888"/>
				<stop  offset="0.9571" style="stop-color:#626262"/>
				<stop  offset="0.978" style="stop-color:#373737"/>
				<stop  offset="0.9966" style="stop-color:#090909"/>
				<stop  offset="1" style="stop-color:#000000"/>
			</linearGradient>
			<path class="st4" d="M180.8-108.8c127.9,0,231.6,103.7,231.6,231.6c0,3.1-0.1,6.2-0.2,9.2c18.4,24.3,31.4,51.5,37.8,80.7
				c9.5-28.3,14.6-58.5,14.6-90C464.6-33.7,337.3-161,180.8-161S-103-33.7-103,122.8c0,20.8,2.3,41.1,6.5,60.7
				c10.2-26.1,25.9-50.3,46-71.5C-44.8-10.9,56.6-108.8,180.8-108.8z"/>
			<path class="st5" d="M180.8,371.3c-137,0-248.5-111.5-248.5-248.5c0-137,111.5-248.5,248.5-248.5c137,0,248.5,111.5,248.5,248.5
				C429.3,259.8,317.9,371.3,180.8,371.3L180.8,371.3z"/>
			
				<linearGradient id="SVGID_00000111182145549449089310000007117530924237685916_" gradientUnits="userSpaceOnUse" x1="180.9596" y1="131.9792" x2="180.9596" y2="-108.8077">
				<stop  offset="0" style="stop-color:#5D7ABB"/>
				<stop  offset="1" style="stop-color:#35489D"/>
			</linearGradient>
			<path style="display:none;fill:url(#SVGID_00000111182145549449089310000007117530924237685916_);" d="M180.8-108.8
				c-124.3,0-225.7,97.9-231.3,220.8C1.1,57.5,81.8,22.5,172.4,22.5c101.3,0,190.1,43.8,239.8,109.5c0.1-3.1,0.2-6.1,0.2-9.2
				C412.4-5.1,308.7-108.8,180.8-108.8z"/>
			
				<linearGradient id="SVGID_00000183964912187752214090000008941086425959985335_" gradientUnits="userSpaceOnUse" x1="180.7307" y1="354.3112" x2="180.7307" y2="22.4967">
				<stop  offset="0" style="stop-color:#3E56A5"/>
				<stop  offset="1" style="stop-color:#2A3592"/>
			</linearGradient>
			<path style="display:none;fill:url(#SVGID_00000183964912187752214090000008941086425959985335_);" d="M172.4,22.5
				c-90.6,0-171.2,35-222.8,89.5c-0.2,3.6-0.3,7.2-0.3,10.8c0,127.9,103.7,231.6,231.6,231.6c124.8,0,226.5-98.7,231.4-222.3
				C362.4,66.3,273.6,22.5,172.4,22.5z"/>
			<g>
				
					<linearGradient id="SVGID_00000020358754228225411910000002322111517628840376_" gradientUnits="userSpaceOnUse" x1="171.2131" y1="98.5746" x2="85.3573" y2="-103.6891">
					<stop  offset="0" style="stop-color:#FFFFFF"/>
					<stop  offset="3.607005e-02" style="stop-color:#FFFFFF;stop-opacity:0.9639"/>
					<stop  offset="1" style="stop-color:#FFFFFF;stop-opacity:0"/>
				</linearGradient>
				<path style="display:none;fill:url(#SVGID_00000020358754228225411910000002322111517628840376_);" d="M387.4-14.9
					c-46.2-64.5-120-108.5-205.1-108.5C45.3-123.4-66-12-66,124.9c0,17.8,1.9,35.7,5.7,53.1C69.5-28.5,437.9,55.8,387.4-14.9z"/>
				<g class="st0">
					<path class="st9" d="M141.6,138.7c4.3,0,7.9-3.5,7.9-7.9c0-4.3-3.5-7.9-7.9-7.9c-3,0-5.5,1.7-6.9,4.1H96.2l-17.5,18.6H49.1
						v95.8H12.6V14.1h36.2v95.2h64.3c1.3,2.5,3.9,4.3,7,4.3c4.3,0,7.9-3.5,7.9-7.9s-3.5-7.9-7.9-7.9c-3.1,0-5.8,1.9-7.1,4.5H55.8
						V7.1H5.7v241.3H56v-95.8h25.7L99.2,134h35.3C135.7,136.8,138.4,138.7,141.6,138.7z M123.2,105.7c0,1.7-1.3,3-3,3
						c-1.7,0-3-1.3-3-3s1.3-3,3-3C121.8,102.7,123.2,104,123.2,105.7z M141.6,127.8c1.7,0,3,1.4,3,3c0,1.7-1.3,3-3,3
						c-1.7,0-3-1.3-3-3C138.6,129.2,140,127.8,141.6,127.8z"/>
					<path class="st9" d="M66.2,135.4c4.3,0,7.9-3.5,7.9-7.9s-3.5-7.9-7.9-7.9c-3.1,0-5.7,1.8-7,4.4H34.5v-85
						c2.5-1.3,4.2-3.9,4.2-6.9c0-4.3-3.5-7.9-7.9-7.9c-4.3,0-7.9,3.5-7.9,7.9c0,3.1,1.9,5.8,4.5,7.1V131h31.7
						C60.5,133.6,63.2,135.4,66.2,135.4z M30.9,29.2c1.7,0,3,1.4,3,3c0,1.7-1.3,3-3,3c-1.7,0-3-1.3-3-3
						C27.8,30.5,29.2,29.2,30.9,29.2z M69.2,127.5c0,1.7-1.3,3-3,3c-1.7,0-3-1.3-3-3s1.3-3,3-3C67.9,124.5,69.2,125.9,69.2,127.5z"
						/>
					<path class="st9" d="M38.1,150.5c0-4.3-3.5-7.9-7.9-7.9c-4.3,0-7.9,3.5-7.9,7.9c0,3,1.8,5.7,4.3,7V217c-2.5,1.3-4.3,3.9-4.3,7
						c0,4.3,3.5,7.9,7.9,7.9c4.3,0,7.9-3.5,7.9-7.9c0-3.1-1.8-5.8-4.5-7.1v-59.4C36.3,156.3,38.1,153.6,38.1,150.5z M30.3,147.5
						c1.7,0,3,1.3,3,3c0,1.7-1.3,3-3,3c-1.7,0-3-1.3-3-3C27.2,148.9,28.6,147.5,30.3,147.5z M30.3,227c-1.7,0-3-1.3-3-3
						c0-1.7,1.3-3,3-3c1.7,0,3,1.3,3,3C33.3,225.7,31.9,227,30.3,227z"/>
					<path class="st9" d="M177,230.4h79.4c1.3,2.6,3.9,4.5,7.1,4.5c4.3,0,7.9-3.5,7.9-7.9c0-4.3-3.5-7.9-7.9-7.9
						c-3.1,0-5.7,1.8-7,4.3h-72.5V96.9l-18.2-18.2V14.5h14.2c1.3,2.6,3.9,4.4,7,4.4c4.3,0,7.9-3.5,7.9-7.9c0-4.3-3.5-7.9-7.9-7.9
						c-3.1,0-5.8,1.8-7,4.4h-21.1v74L177,99.7V230.4z M263.4,224c1.7,0,3,1.3,3,3c0,1.7-1.3,3-3,3c-1.7,0-3-1.3-3-3
						C260.4,225.3,261.8,224,263.4,224z M189.9,11c0,1.7-1.3,3-3,3c-1.7,0-3-1.4-3-3s1.3-3,3-3C188.6,8,189.9,9.3,189.9,11z"/>
					<path class="st9" d="M218.1,146.7c1.3,2.5,3.9,4.2,6.9,4.2c4.3,0,7.9-3.5,7.9-7.9c0-4.3-3.5-7.9-7.9-7.9
						c-3.2,0-5.9,1.9-7.1,4.6h-22.4v64h82.8l17.9,23.2h25.7c1.4,2.4,3.9,4,6.8,4c4.3,0,7.9-3.5,7.9-7.9c0-4.3-3.5-7.9-7.9-7.9
						c-3.2,0-6,2-7.2,4.8h-21.8l-17.9-23.2h-79.2v-50.1H218.1z M228,143.1c0,1.7-1.3,3-3,3c-1.7,0-3-1.4-3-3c0-1.7,1.3-3,3-3
						C226.6,140.1,228,141.4,228,143.1z M331.6,223.1c0,1.7-1.3,3-3,3c-1.7,0-3-1.3-3-3c0-1.7,1.3-3,3-3
						C330.3,220.1,331.6,221.4,331.6,223.1z"/>
					<path class="st9" d="M219,7.6l-19.6,18.8h-21.1V60c-2.3,1.4-3.9,3.9-3.9,6.7c0,4.3,3.5,7.9,7.9,7.9c4.3,0,7.9-3.5,7.9-7.9
						c0-3.3-2-6.1-4.9-7.3V33.3h17l19.6-18.8h132.5v36.8H203v57.8h123.8v37.4h-67L241,122.3h-22.9c-1.3-2.7-3.9-4.5-7.1-4.5
						c-4.3,0-7.9,3.5-7.9,7.9c0,4.3,3.5,7.9,7.9,7.9c3,0,5.7-1.8,7-4.3h19.6l18.8,24.3h77.3v-51.3H209.9v-44h151.4V7.6H219z
						 M182.4,69.7c-1.7,0-3-1.3-3-3s1.3-3,3-3c1.7,0,3,1.3,3,3S184,69.7,182.4,69.7z M211,128.7c-1.7,0-3-1.3-3-3c0-1.7,1.3-3,3-3
						c1.7,0,3,1.3,3,3C214,127.3,212.6,128.7,211,128.7z"/>
					<path class="st9" d="M314,192.2c-4.3,0-7.9,3.5-7.9,7.9c0,4.3,3.5,7.9,7.9,7.9c3,0,5.6-1.7,6.9-4.2h32.8v38.5H164.9V119.9
						c2.6-1.3,4.3-3.9,4.3-7c0-4.3-3.5-7.9-7.9-7.9c-4.3,0-7.9,3.5-7.9,7.9c0,3.1,1.8,5.8,4.5,7.1v26.1h-39.2
						c-1.2-2.7-4-4.7-7.2-4.7c-4.3,0-7.9,3.5-7.9,7.9c0,4.3,3.5,7.9,7.9,7.9c3,0,5.5-1.7,6.9-4.1H158v96.1h202.7v-52.3h-39.5
						C319.9,194.1,317.2,192.2,314,192.2z M111.6,152.3c-1.7,0-3-1.3-3-3c0-1.7,1.3-3,3-3c1.7,0,3,1.4,3,3
						C114.6,151,113.3,152.3,111.6,152.3z M161.4,110c1.7,0,3,1.3,3,3c0,1.7-1.3,3-3,3c-1.7,0-3-1.4-3-3
						C158.4,111.3,159.7,110,161.4,110z M314,203c-1.7,0-3-1.4-3-3c0-1.7,1.3-3,3-3c1.7,0,3,1.3,3,3C317,201.7,315.7,203,314,203z"
						/>
					<path class="st9" d="M240.1,36.2h88c1.3,2.6,3.9,4.4,7,4.4c4.3,0,7.9-3.5,7.9-7.9s-3.5-7.9-7.9-7.9c-3.1,0-5.7,1.8-7,4.4h-88
						c-1.3-2.6-3.9-4.4-7-4.4c-4.3,0-7.9,3.5-7.9,7.9s3.5,7.9,7.9,7.9C236.1,40.6,238.8,38.8,240.1,36.2z M233.1,29.7
						c1.7,0,3,1.4,3,3c0,1.7-1.3,3-3,3c-1.7,0-3-1.3-3-3C230,31,231.4,29.7,233.1,29.7z M338.1,32.7c0,1.7-1.3,3-3,3
						c-1.7,0-3-1.3-3-3c0-1.7,1.3-3,3-3C336.7,29.7,338.1,31,338.1,32.7z"/>
					<path class="st9" d="M274.9,131.5h26.2c1.3,2.5,3.9,4.2,6.9,4.2c4.3,0,7.9-3.5,7.9-7.9s-3.5-7.9-7.9-7.9
						c-3.2,0-5.9,1.9-7.1,4.6h-25.8c-1.2-2.7-4-4.6-7.1-4.6c-4.3,0-7.9,3.5-7.9,7.9s3.5,7.9,7.9,7.9
						C271,135.7,273.6,134,274.9,131.5z M268,124.9c1.7,0,3,1.3,3,3c0,1.7-1.3,3-3,3c-1.7,0-3-1.3-3-3
						C265,126.2,266.4,124.9,268,124.9z M311.1,127.9c0,1.7-1.3,3-3,3c-1.7,0-3-1.3-3-3c0-1.7,1.3-3,3-3
						C309.7,124.9,311.1,126.2,311.1,127.9z"/>
				</g>
				<g>
					<path class="st10" d="M137.8,135.1c4.3,0,7.9-3.5,7.9-7.9c0-4.3-3.5-7.9-7.9-7.9c-3,0-5.5,1.7-6.9,4.1H92.3l-17.5,18.6H45.2
						v95.8H8.7V10.5H45v95.2h64.3c1.3,2.5,3.9,4.3,7,4.3c4.3,0,7.9-3.5,7.9-7.9s-3.5-7.9-7.9-7.9c-3.1,0-5.8,1.9-7.1,4.5H51.9V3.5
						H1.8v241.3h50.3V149h25.7l17.5-18.6h35.3C131.8,133.1,134.6,135.1,137.8,135.1z M119.3,102.1c0,1.7-1.3,3-3,3c-1.7,0-3-1.3-3-3
						c0-1.7,1.3-3,3-3C117.9,99.1,119.3,100.4,119.3,102.1z M137.8,124.2c1.7,0,3,1.4,3,3c0,1.7-1.3,3-3,3c-1.7,0-3-1.3-3-3
						C134.8,125.6,136.1,124.2,137.8,124.2z"/>
					<path class="st10" d="M62.4,131.8c4.3,0,7.9-3.5,7.9-7.9c0-4.3-3.5-7.9-7.9-7.9c-3.1,0-5.7,1.8-7,4.4H30.6v-85
						c2.5-1.3,4.2-3.9,4.2-6.9c0-4.3-3.5-7.9-7.9-7.9c-4.3,0-7.9,3.5-7.9,7.9c0,3.1,1.9,5.8,4.5,7.1v91.7h31.7
						C56.6,130,59.3,131.8,62.4,131.8z M27,25.6c1.7,0,3,1.4,3,3s-1.3,3-3,3c-1.7,0-3-1.3-3-3S25.3,25.6,27,25.6z M65.4,123.9
						c0,1.7-1.3,3-3,3s-3-1.3-3-3c0-1.7,1.3-3,3-3S65.4,122.3,65.4,123.9z"/>
					<path class="st10" d="M34.3,146.9c0-4.3-3.5-7.9-7.9-7.9c-4.3,0-7.9,3.5-7.9,7.9c0,3,1.8,5.7,4.3,7v59.6
						c-2.5,1.3-4.3,3.9-4.3,7c0,4.3,3.5,7.9,7.9,7.9c4.3,0,7.9-3.5,7.9-7.9c0-3.1-1.8-5.8-4.5-7.1V154
						C32.4,152.7,34.3,150,34.3,146.9z M26.4,143.9c1.7,0,3,1.3,3,3s-1.3,3-3,3c-1.7,0-3-1.3-3-3S24.7,143.9,26.4,143.9z
						 M26.4,223.4c-1.7,0-3-1.3-3-3c0-1.7,1.3-3,3-3c1.7,0,3,1.3,3,3C29.4,222,28,223.4,26.4,223.4z"/>
					<path class="st10" d="M173.1,226.7h79.4c1.3,2.6,3.9,4.5,7.1,4.5c4.3,0,7.9-3.5,7.9-7.9c0-4.3-3.5-7.9-7.9-7.9
						c-3.1,0-5.7,1.8-7,4.3h-72.5V93.2L161.8,75V10.9h14.2c1.3,2.6,3.9,4.4,7,4.4c4.3,0,7.9-3.5,7.9-7.9c0-4.3-3.5-7.9-7.9-7.9
						c-3.1,0-5.8,1.8-7,4.4h-21.1v74l18.2,18.2V226.7z M259.6,220.3c1.7,0,3,1.3,3,3c0,1.7-1.3,3-3,3c-1.7,0-3-1.3-3-3
						C256.6,221.7,257.9,220.3,259.6,220.3z M186.1,7.4c0,1.7-1.3,3-3,3c-1.7,0-3-1.4-3-3s1.3-3,3-3C184.7,4.4,186.1,5.7,186.1,7.4z
						"/>
					<path class="st10" d="M214.2,143.1c1.3,2.5,3.9,4.2,6.9,4.2c4.3,0,7.9-3.5,7.9-7.9c0-4.3-3.5-7.9-7.9-7.9
						c-3.2,0-5.9,1.9-7.1,4.6h-22.4v64h82.8l17.9,23.2h25.7c1.4,2.4,3.9,4,6.8,4c4.3,0,7.9-3.5,7.9-7.9c0-4.3-3.5-7.9-7.9-7.9
						c-3.2,0-6,2-7.2,4.8h-21.8l-17.9-23.2h-79.2v-50.1H214.2z M224.1,139.5c0,1.7-1.3,3-3,3c-1.7,0-3-1.4-3-3c0-1.7,1.3-3,3-3
						C222.8,136.5,224.1,137.8,224.1,139.5z M327.7,219.5c0,1.7-1.3,3-3,3c-1.7,0-3-1.3-3-3c0-1.7,1.3-3,3-3
						C326.4,216.5,327.7,217.8,327.7,219.5z"/>
					<path class="st10" d="M215.2,3.9l-19.6,18.8h-21.1v33.7c-2.3,1.4-3.9,3.9-3.9,6.7c0,4.3,3.5,7.9,7.9,7.9c4.3,0,7.9-3.5,7.9-7.9
						c0-3.3-2-6.1-4.9-7.3V29.6h17L218,10.9h132.5v36.8H199.1v57.8h123.8v37.4h-67l-18.8-24.3h-22.9c-1.3-2.7-3.9-4.5-7.1-4.5
						c-4.3,0-7.9,3.5-7.9,7.9s3.5,7.9,7.9,7.9c3,0,5.7-1.8,7-4.3h19.6l18.8,24.3h77.3V98.6H206.1v-44h151.4V3.9H215.2z M178.5,66.1
						c-1.7,0-3-1.3-3-3s1.3-3,3-3c1.7,0,3,1.3,3,3S180.1,66.1,178.5,66.1z M207.1,125.1c-1.7,0-3-1.3-3-3c0-1.7,1.3-3,3-3
						c1.7,0,3,1.3,3,3C210.1,123.7,208.8,125.1,207.1,125.1z"/>
					<path class="st10" d="M310.2,188.5c-4.3,0-7.9,3.5-7.9,7.9c0,4.3,3.5,7.9,7.9,7.9c3,0,5.6-1.7,6.9-4.2h32.8v38.5H161V116.3
						c2.6-1.3,4.3-3.9,4.3-7c0-4.3-3.5-7.9-7.9-7.9c-4.3,0-7.9,3.5-7.9,7.9c0,3.1,1.8,5.8,4.5,7.1v26.1h-39.2
						c-1.2-2.7-4-4.7-7.2-4.7c-4.3,0-7.9,3.5-7.9,7.9c0,4.3,3.5,7.9,7.9,7.9c3,0,5.5-1.7,6.9-4.1h39.5v96.1h202.7v-52.3h-39.5
						C316.1,190.4,313.3,188.5,310.2,188.5z M107.7,148.7c-1.7,0-3-1.3-3-3s1.3-3,3-3c1.7,0,3,1.4,3,3S109.4,148.7,107.7,148.7z
						 M157.5,106.3c1.7,0,3,1.3,3,3s-1.3,3-3,3c-1.7,0-3-1.4-3-3S155.8,106.3,157.5,106.3z M310.2,199.4c-1.7,0-3-1.4-3-3
						c0-1.7,1.3-3,3-3c1.7,0,3,1.3,3,3C313.2,198.1,311.8,199.4,310.2,199.4z"/>
					<path class="st10" d="M236.2,32.6h88c1.3,2.6,3.9,4.4,7,4.4c4.3,0,7.9-3.5,7.9-7.9s-3.5-7.9-7.9-7.9c-3.1,0-5.7,1.8-7,4.4h-88
						c-1.3-2.6-3.9-4.4-7-4.4c-4.3,0-7.9,3.5-7.9,7.9s3.5,7.9,7.9,7.9C232.3,36.9,234.9,35.1,236.2,32.6z M229.2,26.1
						c1.7,0,3,1.4,3,3s-1.3,3-3,3c-1.7,0-3-1.3-3-3S227.5,26.1,229.2,26.1z M334.2,29.1c0,1.7-1.3,3-3,3c-1.7,0-3-1.3-3-3s1.3-3,3-3
						C332.9,26.1,334.2,27.4,334.2,29.1z"/>
					<path class="st10" d="M271.1,127.9h26.2c1.3,2.5,3.9,4.2,6.9,4.2c4.3,0,7.9-3.5,7.9-7.9c0-4.3-3.5-7.9-7.9-7.9
						c-3.2,0-5.9,1.9-7.1,4.6h-25.8c-1.2-2.7-4-4.6-7.1-4.6c-4.3,0-7.9,3.5-7.9,7.9c0,4.3,3.5,7.9,7.9,7.9
						C267.2,132.1,269.8,130.4,271.1,127.9z M264.2,121.2c1.7,0,3,1.3,3,3s-1.3,3-3,3c-1.7,0-3-1.3-3-3S262.5,121.2,264.2,121.2z
						 M307.2,124.2c0,1.7-1.3,3-3,3c-1.7,0-3-1.3-3-3s1.3-3,3-3C305.9,121.2,307.2,122.6,307.2,124.2z"/>
				</g>
			</g>
		</g>
	</g>
</g>
</svg>
