<svg id="visual" viewBox="0 0 960 100" width="960" height="100" xmlns="http://www.w3.org/2000/svg" xmlns:xlink="http://www.w3.org/1999/xlink" version="1.1"><rect x="0" y="0" width="960" height="100" fill="#FFFFFF"></rect><path d="M0 32L31 32L31 13L62 13L62 65L93 65L93 75L124 75L124 42L155 42L155 25L186 25L186 67L217 67L217 10L248 10L248 73L279 73L279 62L310 62L310 45L341 45L341 36L372 36L372 47L403 47L403 74L434 74L434 53L465 53L465 8L495 8L495 31L526 31L526 30L557 30L557 76L588 76L588 27L619 27L619 53L650 53L650 75L681 75L681 15L712 15L712 68L743 68L743 45L774 45L774 37L805 37L805 14L836 14L836 77L867 77L867 23L898 23L898 40L929 40L929 25L960 25L960 55L960 0L960 0L929 0L929 0L898 0L898 0L867 0L867 0L836 0L836 0L805 0L805 0L774 0L774 0L743 0L743 0L712 0L712 0L681 0L681 0L650 0L650 0L619 0L619 0L588 0L588 0L557 0L557 0L526 0L526 0L495 0L495 0L465 0L465 0L434 0L434 0L403 0L403 0L372 0L372 0L341 0L341 0L310 0L310 0L279 0L279 0L248 0L248 0L217 0L217 0L186 0L186 0L155 0L155 0L124 0L124 0L93 0L93 0L62 0L62 0L31 0L31 0L0 0Z" fill="#615c5c" stroke-linecap="square" stroke-linejoin="miter"></path></svg>