<svg xmlns="http://www.w3.org/2000/svg" viewBox="0 0 960.5 101"><defs><style>.cls-1{fill:#fff;}.cls-2{fill:#615c5c;}</style></defs><g id="visual"><rect class="cls-1" width="960" height="100"/><path class="cls-2" d="M0,21H31v2H62v7H93V66h31V79h31V30h31V58h31V70h31V80h31V20h31V37h31V82h31V28h31v3h31V53h31V65h30V47h31V43h31V73h31V50h31V30h31V88h31V66h31V80h31V42h31V81h31V49h31V43h31v5h31V64h31V35h31v66H0Z"/></g><g id="layer_2"><rect class="cls-1" x="0.5" width="960" height="100"/><path class="cls-2" d="M.5,34h31V77h31V9h31V48h31V95h31V74h31V66h31V4h31V87h31V72h31V29h31V52h31V3h31V92h31V31h31V85h30V41h31V23h31V90h31V79h31V78h31V25h31V65h31V80h62V59h31V44h31V39h31V57h31V97h31V77h31v24H.5Z"/></g><g id="layer_3"><rect class="cls-1" x="0.5" width="960" height="100"/><path class="cls-2" d="M.5,26h31V36h31V55h31V80h31V37h31V99h31V27h31V53h31V9h31V24h31V41h31V80h31V10h31V50h31V97h31V71h30V94h31V9h31V26h31V36h31V11h31V78h31V34h31v8h31V77h31V51h62V0h31V62h31V83h31V32h31v69H.5Z"/></g></svg>