<svg id="Layer_1" data-name="Layer 1" xmlns="http://www.w3.org/2000/svg" viewBox="0 0 135.42 135.42"><defs><style>.cls-1{fill:#fcfcfc;}</style></defs><path class="cls-1" d="M63.48,1.24h8.46c.34.07.68.17,1,.22,3.48.54,7,.86,10.42,1.64a67.6,67.6,0,0,1,51,54.18c.41,2.47.68,5,1,7.44v8.46c-.07.39-.17.77-.23,1.16-.53,3.43-.86,6.91-1.63,10.29a67.6,67.6,0,0,1-54.18,51c-2.47.41-5,.69-7.44,1H63.48c-.29-.07-.58-.16-.88-.21-3.09-.45-6.21-.75-9.27-1.36-26.25-5.25-48-27.82-52.27-54.2C.64,78.33.35,75.75,0,73.18V64.72c.08-.38.17-.77.23-1.15.45-3,.74-6.13,1.36-9.14C7.05,28,29.35,6.65,55.91,2.28,58.42,1.87,61,1.59,63.48,1.24ZM58.13,9.62V47.4q0,18.65,0,37.29c0,3.1-1.54,4.63-4.62,4.64-3.84,0-7.67,0-11.51,0a1.86,1.86,0,0,0-2,1.22A11.33,11.33,0,0,1,25.4,95.89,11.43,11.43,0,1,1,40.14,80.33c.21.41.63,1,1,1,3,.07,6,0,9,0V11.73c-2.2.85-4.23,1.69-6.29,2.43A1.63,1.63,0,0,0,42.59,16c.06,4.76,0,9.52,0,14.28a3.92,3.92,0,0,1-3.88,4,4,4,0,0,1-4-3.8c-.05-.61,0-1.23,0-1.85V19.12c-1.5,1.11-2.81,2-4,3a2.49,2.49,0,0,0-.78,1.62c-.07,2.82,0,5.65,0,8.47,0,5.47-1.05,7.4-4,7.37S22,37.64,22,32.27V30.56A59.79,59.79,0,0,0,10.5,51.67c3.8,0,7.37,0,10.94,0a1.86,1.86,0,0,0,2-1.21A11.38,11.38,0,0,1,45,55.61a11.39,11.39,0,0,1-21.62,5.06,1.57,1.57,0,0,0-1.66-1.09q-6,.08-11.9,0c-.89,0-1.23.27-1.34,1.15A59.85,59.85,0,0,0,70,128.69c2.13-.07,4.26-.36,6.43-.55V54.39c0-3.12,1.49-4.62,4.62-4.63,4.14,0,8.29,0,12.43,0A2.49,2.49,0,0,0,96,48.43a11.26,11.26,0,0,1,12.89-4.81,11.44,11.44,0,0,1,0,21.89C103.88,67,98.34,65.18,96,60.61c-1.37-2.71-3-3.19-5.59-3-1.61.16-3.26,0-4.89,0-.38,0-.76,0-1.16.08v68.69c2.47-.93,4.79-1.86,7.14-2.69a1.69,1.69,0,0,0,1.29-1.93c-.06-5.65,0-11.29,0-16.93a4,4,0,1,1,7.92-.09c0,4.1,0,8.2,0,12.3,0,.46,0,.92.07,1.61,1.44-1.06,2.65-2,3.91-2.87a1.85,1.85,0,0,0,.83-1.77q0-7.27,0-14.55a4,4,0,1,1,7.92-.06c0,2.2,0,4.41,0,6.61,0,.3.07.61.11,1,4.67-5.15,10.7-16.44,11.16-20.9-3.62,0-7.22,0-10.82,0A1.78,1.78,0,0,0,112,87.36a11.41,11.41,0,1,1,.06-10.06,1.5,1.5,0,0,0,1.57,1c4,0,7.94,0,11.91,0,1,0,1.29-.29,1.4-1.23a60,60,0,0,0,0-15.55c-2.48-18-11.28-32.11-26.24-42.34a57,57,0,0,0-30-9.91C66.64,9.09,62.45,9.49,58.13,9.62Zm47.42,41.45A3.5,3.5,0,1,0,109,54.49,3.49,3.49,0,0,0,105.55,51.07Zm-75.42,4.6a3.47,3.47,0,1,0,3.49-3.54A3.51,3.51,0,0,0,30.13,55.67Zm75.16,26.59a3.47,3.47,0,1,0-6.93,0,3.47,3.47,0,1,0,6.93,0ZM29.9,88.83a3.47,3.47,0,1,0-3.49-3.5A3.42,3.42,0,0,0,29.9,88.83Z" transform="translate(0 -1.24)"/><path class="cls-1" d="M71.2,71.66c0,8.06,0,16.13,0,24.19a4.61,4.61,0,0,1-2.78,4.65c-1.89.94-3.7,2-5.59,3a1.82,1.82,0,0,0-1.19,2,11.31,11.31,0,0,1-9.52,11.57,11.42,11.42,0,0,1-8.47-20.57,11.24,11.24,0,0,1,13.22,0,1.59,1.59,0,0,0,2.09.1c1.38-.85,3.33-1.3,4.07-2.51s.21-3.08.21-4.66q0-22.22,0-44.43a5.56,5.56,0,0,1,2.22-4.79c3.74-3,7.37-6.16,11.08-9.2a1.48,1.48,0,0,0,.59-1.79,11.32,11.32,0,1,1,6.17,7.56,1.67,1.67,0,0,0-1.46.17q-5.09,4.13-10,8.39a2.29,2.29,0,0,0-.58,1.59C71.19,55.17,71.2,63.42,71.2,71.66ZM88.14,22.94a3.54,3.54,0,0,0-3.46,3.46,3.5,3.5,0,0,0,7,.05A3.52,3.52,0,0,0,88.14,22.94ZM53.76,105.8a3.47,3.47,0,1,0-3.42,3.45A3.42,3.42,0,0,0,53.76,105.8Z" transform="translate(0 -1.24)"/></svg>